{
    "asset": {
        "copyright": "2024 (c) Adobe Inc.",
        "generator": "Adobe Substance 3D Stager - 08422fbca8eef956971d979736c3f97c5124c02e",
        "version": "2.0"
    },
    "accessors": [
        {
            "bufferView": 0,
            "componentType": 5126,
            "count": 60600,
            "type": "VEC3",
            "max": [
                1.0,
                0.009999999776482582,
                1.0
            ],
            "min": [
                -1.0,
                0.0,
                -1.0
            ]
        },
        {
            "bufferView": 1,
            "componentType": 5126,
            "count": 60600,
            "type": "VEC3"
        },
        {
            "bufferView": 2,
            "componentType": 5126,
            "count": 60600,
            "type": "VEC4"
        },
        {
            "bufferView": 3,
            "componentType": 5126,
            "count": 60600,
            "type": "VEC2"
        },
        {
            "bufferView": 4,
            "componentType": 5125,
            "count": 60600,
            "type": "SCALAR",
            "max": [
                60599.0
            ],
            "min": [
                0.0
            ]
        },
        {
            "bufferView": 5,
            "componentType": 5126,
            "count": 1302,
            "type": "VEC3",
            "max": [
                1.8957198858261109,
                0.947861909866333,
                0.08824999630451203
            ],
            "min": [
                -1.8957198858261109,
                -0.947861909866333,
                -0.08824999630451203
            ]
        },
        {
            "bufferView": 6,
            "componentType": 5126,
            "count": 1302,
            "type": "VEC3"
        },
        {
            "bufferView": 7,
            "componentType": 5126,
            "count": 1302,
            "type": "VEC4"
        },
        {
            "bufferView": 8,
            "componentType": 5126,
            "count": 1302,
            "type": "VEC2"
        },
        {
            "bufferView": 9,
            "componentType": 5125,
            "count": 4632,
            "type": "SCALAR",
            "max": [
                1301.0
            ],
            "min": [
                0.0
            ]
        }
    ],
    "bufferViews": [
        {
            "buffer": 0,
            "byteOffset": 0,
            "byteLength": 727200,
            "target": 34962
        },
        {
            "buffer": 0,
            "byteOffset": 727200,
            "byteLength": 727200,
            "target": 34962
        },
        {
            "buffer": 0,
            "byteOffset": 1454400,
            "byteLength": 969600,
            "target": 34962
        },
        {
            "buffer": 0,
            "byteOffset": 2424000,
            "byteLength": 484800,
            "target": 34962
        },
        {
            "buffer": 0,
            "byteOffset": 2908800,
            "byteLength": 242400,
            "target": 34963
        },
        {
            "buffer": 0,
            "byteOffset": 3151200,
            "byteLength": 15624,
            "target": 34962
        },
        {
            "buffer": 0,
            "byteOffset": 3166824,
            "byteLength": 15624,
            "target": 34962
        },
        {
            "buffer": 0,
            "byteOffset": 3182448,
            "byteLength": 20832,
            "target": 34962
        },
        {
            "buffer": 0,
            "byteOffset": 3203280,
            "byteLength": 10416,
            "target": 34962
        },
        {
            "buffer": 0,
            "byteOffset": 3213696,
            "byteLength": 18528,
            "target": 34963
        }
    ],
    "buffers": [
        {
            "byteLength": 3232224,
            "uri": "op1_binary.bin"
        }
    ],
    "images": [
        {
            "name": "composited_baseColor",
            "uri": "op1_images/composited_baseColor.jpg",
            "mimeType": "image/jpeg"
        },
        {
            "name": "composited_roughness_composited_metallic",
            "uri": "op1_images/composited_roughness_composited_metallic.png",
            "mimeType": "image/png"
        },
        {
            "name": "composited_baseColor_0",
            "uri": "op1_images/composited_baseColor_0.jpg",
            "mimeType": "image/jpeg"
        },
        {
            "name": "composited_roughness",
            "uri": "op1_images/composited_roughness.png",
            "mimeType": "image/png"
        }
    ],
    "materials": [
        {
            "pbrMetallicRoughness": {
                "baseColorTexture": {
                    "index": 0
                },
                "metallicRoughnessTexture": {
                    "index": 1
                }
            },
            "name": "Plástico",
            "doubleSided": true,
            "extensions": {
                "KHR_materials_ior": {
                    "ior": 1.600000023841858
                }
            }
        },
        {
            "pbrMetallicRoughness": {
                "baseColorTexture": {
                    "index": 2
                },
                "metallicFactor": 0.0,
                "metallicRoughnessTexture": {
                    "index": 3
                }
            },
            "name": "Plástico",
            "doubleSided": true,
            "extensions": {
                "KHR_materials_ior": {
                    "ior": 1.600000023841858
                }
            }
        },
        {
            "pbrMetallicRoughness": {
                "baseColorFactor": [
                    1.0,
                    1.0,
                    1.0,
                    0.05999999865889549
                ],
                "metallicFactor": 0.0,
                "roughnessFactor": 0.028999999165534974
            },
            "alphaMode": "BLEND",
            "name": "Plástico 2",
            "doubleSided": true,
            "extensions": {
                "KHR_materials_ior": {
                    "ior": 1.600000023841858
                }
            }
        }
    ],
    "meshes": [
        {
            "primitives": [
                {
                    "attributes": {
                        "POSITION": 0,
                        "NORMAL": 1,
                        "TANGENT": 2,
                        "TEXCOORD_0": 3
                    },
                    "indices": 4,
                    "material": 0
                }
            ]
        },
        {
            "primitives": [
                {
                    "attributes": {
                        "TANGENT": 2,
                        "NORMAL": 1,
                        "POSITION": 0,
                        "TEXCOORD_0": 3
                    },
                    "indices": 4,
                    "material": 1
                }
            ]
        },
        {
            "name": "groupNumber_0",
            "primitives": [
                {
                    "attributes": {
                        "POSITION": 5,
                        "NORMAL": 6,
                        "TANGENT": 7,
                        "TEXCOORD_0": 8
                    },
                    "indices": 9,
                    "material": 2
                }
            ]
        }
    ],
    "nodes": [
        {
            "name": "working_cam_n3d"
        },
        {
            "children": [
                2,
                3,
                4
            ],
            "translation": [
                1.6156519651412964,
                -0.7881251573562622,
                0.0
            ],
            "name": "3"
        },
        {
            "translation": [
                -0.7917897701263428,
                1.788124918937683,
                0.0
            ],
            "rotation": [
                0.0,
                0.0,
                -0.7071067094802856,
                0.7071068286895752
            ],
            "scale": [
                0.9999998807907105,
                0.9999998807907105,
                1.0
            ],
            "mesh": 0,
            "name": "1"
        },
        {
            "translation": [
                -2.376816987991333,
                2.061255931854248,
                0.0
            ],
            "rotation": [
                0.0,
                0.0,
                -0.7071067690849304,
                0.7071067690849304
            ],
            "scale": [
                0.17499999701976777,
                0.17499999701976777,
                0.17499999701976777
            ],
            "mesh": 1,
            "name": "Cilindro"
        },
        {
            "translation": [
                -1.7166728973388672,
                2.6557719707489015,
                0.0
            ],
            "rotation": [
                0.0,
                0.0,
                0.13052619993686677,
                0.9914448857307434
            ],
            "scale": [
                0.44392403960227969,
                0.4439239501953125,
                1.416430950164795
            ],
            "mesh": 2,
            "name": "alça"
        }
    ],
    "samplers": [
        {}
    ],
    "scenes": [
        {
            "nodes": [
                1
            ],
            "name": "scene"
        }
    ],
    "textures": [
        {
            "name": "composited_baseColor",
            "sampler": 0,
            "source": 0
        },
        {
            "name": "composited_roughness_composited_metallic",
            "sampler": 0,
            "source": 1
        },
        {
            "name": "composited_baseColor",
            "sampler": 0,
            "source": 2
        },
        {
            "name": "composited_roughness",
            "sampler": 0,
            "source": 3
        }
    ],
    "scene": 0,
    "extensionsUsed": [
        "KHR_materials_ior"
    ]
}